<svg width="24" height="24" viewBox="0 0 24 24" fill="none" xmlns="http://www.w3.org/2000/svg">
<path d="M12 6.7C12.0074 5.64827 12.2109 4.60714 12.6 3.63C12.41 3.63 12.22 3.63 12.02 3.63C10.4878 3.62812 8.9842 4.04433 7.67109 4.83381C6.35797 5.62328 5.28516 6.75609 4.56824 8.11018C3.85133 9.46427 3.51747 10.9883 3.60266 12.5181C3.68784 14.0479 4.18883 15.5255 5.05165 16.7916C5.91446 18.0577 7.10641 19.0644 8.49905 19.7032C9.89169 20.3421 11.4322 20.5888 12.9547 20.4168C14.4772 20.2448 15.9239 19.6607 17.139 18.7273C18.354 17.7939 19.2914 16.5467 19.85 15.12C17.7163 14.9776 15.7169 14.0277 14.2586 12.4636C12.8004 10.8994 11.9927 8.83848 12 6.7V6.7Z" stroke="white" stroke-width="1.2" stroke-linecap="round" stroke-linejoin="round"/>
<path d="M17.44 5.55001C17.1224 5.565 16.8177 5.68057 16.57 5.88001C16.4573 5.96885 16.365 6.08093 16.2994 6.20862C16.2338 6.33631 16.1965 6.47661 16.19 6.62001C16.1798 6.47741 16.1409 6.33834 16.0756 6.21117C16.0103 6.084 15.92 5.97135 15.81 5.88001C15.5613 5.68235 15.2572 5.56702 14.94 5.55001C15.2576 5.54366 15.564 5.43099 15.81 5.23001C15.9195 5.13828 16.0096 5.02554 16.0749 4.89845C16.1401 4.77135 16.1793 4.63247 16.19 4.49001C16.1965 4.6334 16.2338 4.77371 16.2994 4.90139C16.365 5.02908 16.4573 5.14116 16.57 5.23001C16.8153 5.43237 17.1221 5.54523 17.44 5.55001Z" fill="white"/>
<path d="M20.46 10.54C20.1424 10.555 19.8377 10.6706 19.59 10.87C19.4773 10.9588 19.385 11.0709 19.3194 11.1986C19.2538 11.3263 19.2165 11.4666 19.21 11.61C19.1998 11.4674 19.1609 11.3283 19.0956 11.2012C19.0303 11.074 18.94 10.9614 18.83 10.87C18.5923 10.6799 18.3033 10.565 18 10.54C18.3176 10.5337 18.624 10.421 18.87 10.22C18.9795 10.1283 19.0696 10.0155 19.1349 9.88844C19.2001 9.76135 19.2393 9.62247 19.25 9.48C19.2565 9.6234 19.2938 9.7637 19.3594 9.89139C19.425 10.0191 19.5173 10.1312 19.63 10.22C19.8645 10.4141 20.1559 10.5264 20.46 10.54Z" fill="white"/>
<path d="M16.71 10C16.4574 10.0056 16.2129 10.0895 16.01 10.24C15.9225 10.3062 15.8505 10.3905 15.7987 10.4872C15.7469 10.5838 15.7166 10.6905 15.71 10.8C15.698 10.6908 15.6644 10.585 15.6111 10.4889C15.5579 10.3928 15.4862 10.3082 15.4 10.24C15.2002 10.0908 14.9592 10.007 14.71 10C14.9592 9.99301 15.2002 9.90918 15.4 9.76C15.4862 9.69183 15.5579 9.60722 15.6111 9.51109C15.6644 9.41496 15.698 9.30922 15.71 9.2C15.7166 9.30946 15.7469 9.41619 15.7987 9.51286C15.8505 9.60952 15.9225 9.69383 16.01 9.76C16.2129 9.91055 16.4574 9.99441 16.71 10Z" fill="white"/>
</svg>
