<svg width="24" height="24" viewBox="0 0 24 24" fill="none" xmlns="http://www.w3.org/2000/svg">
<path d="M12 6.7C12.0074 5.64827 12.2109 4.60714 12.6 3.63C12.41 3.63 12.22 3.63 12.02 3.63C10.4878 3.62811 8.9842 4.04433 7.67109 4.8338C6.35797 5.62328 5.28516 6.75609 4.56824 8.11018C3.85133 9.46427 3.51747 10.9883 3.60266 12.5181C3.68784 14.0479 4.18883 15.5255 5.05165 16.7916C5.91446 18.0577 7.10641 19.0644 8.49905 19.7032C9.89169 20.3421 11.4322 20.5888 12.9547 20.4168C14.4772 20.2448 15.9239 19.6607 17.139 18.7273C18.354 17.7939 19.2914 16.5467 19.85 15.12C17.7163 14.9776 15.7169 14.0277 14.2586 12.4636C12.8004 10.8994 11.9927 8.83848 12 6.7V6.7Z" stroke="white" stroke-width="1.2" stroke-linecap="round" stroke-linejoin="round"/>
</svg>
