<svg width="24" height="24" viewBox="0 0 24 24" fill="none" xmlns="http://www.w3.org/2000/svg">
<path d="M14.63 8.76C14.3125 8.76123 14.0003 8.67844 13.7251 8.52003C13.4499 8.36161 13.2215 8.13322 13.063 7.85802C12.9046 7.58282 12.8218 7.27061 12.823 6.95307C12.8243 6.63553 12.9095 6.32397 13.07 6.05V6.05L14.41 3.73C14.4314 3.69031 14.4632 3.65716 14.5019 3.63405C14.5406 3.61094 14.5849 3.59874 14.63 3.59874C14.6751 3.59874 14.7194 3.61094 14.7581 3.63405C14.7968 3.65716 14.8286 3.69031 14.85 3.73L16.19 6.05C16.3505 6.32397 16.4357 6.63553 16.437 6.95307C16.4382 7.27061 16.3554 7.58282 16.197 7.85802C16.0386 8.13322 15.8102 8.36161 15.535 8.52003C15.2598 8.67844 14.9475 8.76123 14.63 8.76V8.76Z" stroke="white" stroke-width="1.21" stroke-linecap="round" stroke-linejoin="round"/>
<path d="M15.42 20.39C14.9251 20.3851 14.4402 20.2506 14.0135 19.9997C13.5869 19.7489 13.2335 19.3905 12.9886 18.9605C12.7437 18.5304 12.6159 18.0436 12.6179 17.5487C12.6199 17.0538 12.7517 16.5681 13 16.14V16.14L15.07 12.5C15.1046 12.4375 15.1553 12.3854 15.2169 12.3491C15.2784 12.3128 15.3486 12.2936 15.42 12.2936C15.4915 12.2936 15.5616 12.3128 15.6232 12.3491C15.6847 12.3854 15.7354 12.4375 15.77 12.5L17.87 16.14C18.1196 16.5703 18.2514 17.0587 18.2521 17.5562C18.2527 18.0536 18.1223 18.5424 17.8738 18.9734C17.6254 19.4043 17.2678 19.7622 16.837 20.0109C16.4062 20.2596 15.9174 20.3904 15.42 20.39V20.39Z" stroke="white" stroke-width="1.21" stroke-linecap="round" stroke-linejoin="round"/>
<path d="M8.87 15.37C8.47597 15.3685 8.08918 15.264 7.748 15.0669C7.40683 14.8698 7.12311 14.5869 6.92501 14.2462C6.72691 13.9056 6.62131 13.5191 6.61867 13.1251C6.61604 12.7311 6.71647 12.3432 6.91 12V12L8.59 9.07C8.61768 9.01998 8.65824 8.97829 8.70748 8.94926C8.75672 8.92023 8.81284 8.90492 8.87 8.90492C8.92716 8.90492 8.98328 8.92023 9.03252 8.94926C9.08176 8.97829 9.12233 9.01998 9.15 9.07L10.83 12C11.0303 12.3467 11.1348 12.7404 11.133 13.1408C11.1312 13.5412 11.023 13.9339 10.8195 14.2788C10.6161 14.6236 10.3246 14.9083 9.97507 15.1035C9.6255 15.2987 9.23033 15.3976 8.83 15.39L8.87 15.37Z" stroke="white" stroke-width="1.21" stroke-linecap="round" stroke-linejoin="round"/>
</svg>
