<svg width="24" height="24" viewBox="0 0 24 24" fill="none" xmlns="http://www.w3.org/2000/svg">
<path d="M17.75 17.31C18.4583 17.1462 19.0941 16.7565 19.5614 16.1996C20.0288 15.6428 20.3023 14.949 20.3407 14.223C20.3791 13.497 20.1802 12.7783 19.7742 12.1752C19.3682 11.5722 18.7771 11.1176 18.09 10.88C17.4891 10.6883 16.8491 10.6539 16.2312 10.7799C15.6132 10.906 15.0378 11.1883 14.56 11.6C13.6997 12.43 12.9683 13.3839 12.39 14.43C11 16.59 8.09 18.16 5.56 16.84C4.94848 16.5276 4.43687 16.05 4.08331 15.4613C3.72976 14.8726 3.54845 14.1966 3.56 13.51C3.55998 12.9979 3.66133 12.4909 3.85819 12.0182C4.05505 11.5455 4.34353 11.1165 4.70701 10.7558C5.07048 10.3951 5.50176 10.1099 5.97597 9.91669C6.45018 9.72348 6.95795 9.62604 7.47 9.63H8C8.22227 8.92066 8.62382 8.28068 9.16581 7.77195C9.70779 7.26322 10.3719 6.90294 11.0939 6.72597C11.8158 6.54899 12.5712 6.56131 13.2871 6.76172C14.0029 6.96214 14.6549 7.34387 15.18 7.87C15.4256 8.11286 15.6405 8.38488 15.82 8.68" stroke="white" stroke-width="1.2" stroke-linecap="round" stroke-linejoin="round"/>
</svg>
